<svg width="76" height="22" viewBox="0 0 76 22" fill="none" xmlns="http://www.w3.org/2000/svg">
<path d="M12.4531 2H8.6875L7.07812 2.1875L6.09375 3.1875L5.85938 4.5V12.4375L6.09375 13.75L7.10938 14.7344L8.6875 14.9219H12.4531L14.2812 14.7031L13.8906 13.0156L12.4219 13.2656H8.78125L7.75 13.1094L7.53125 12.1719V4.65625L7.6875 3.79688L8.78125 3.625H12.3594L13.9688 3.89062L14.2812 2.21875L12.4531 2ZM12.6562 0.59375C13.7083 0.59375 14.6615 0.75 15.5156 1.0625C16.3698 1.375 17.0938 1.80208 17.6875 2.34375C18.2917 2.88542 18.7552 3.52083 19.0781 4.25C19.401 4.96875 19.5625 5.73438 19.5625 6.54688V16.0469C19.5625 16.8594 19.401 17.6302 19.0781 18.3594C18.7552 19.0781 18.2917 19.7083 17.6875 20.25C17.0938 20.7917 16.3698 21.2188 15.5156 21.5312C14.6615 21.8438 13.7083 22 12.6562 22H7.84375C6.79167 22 5.83854 21.8438 4.98438 21.5312C4.13021 21.2188 3.40104 20.7917 2.79688 20.25C2.20312 19.7083 1.74479 19.0781 1.42188 18.3594C1.09896 17.6302 0.9375 16.8594 0.9375 16.0469V6.54688C0.9375 5.73438 1.09896 4.96875 1.42188 4.25C1.74479 3.52083 2.20312 2.88542 2.79688 2.34375C3.40104 1.80208 4.13021 1.375 4.98438 1.0625C5.83854 0.75 6.79167 0.59375 7.84375 0.59375H12.6562ZM33.0781 14.9062V11.3438V4.5V3.1875L32.0156 2.1875L30.4531 2H26.8906L25.0625 2.21875L25.4531 3.92188L26.9219 3.625H30.4062L31.3438 3.82812L31.5625 4.65625V8.29688L30.4531 8.10938H26.8906L25.3281 8.34375L24.3281 9.32812L24.1094 10.6094V12.4375L24.3281 13.75L25.3281 14.7344L26.8906 14.9219H30.3125L31.5312 14.7344L33.0781 14.9062ZM31.5625 13.1094L30.3438 13.2656H26.9844L26 13.1094L25.7812 12.1719V10.8281L25.9062 9.9375L26.9844 9.78125H30.375L31.5625 9.90625V12.2656V13.1094ZM31.1562 0.59375C32.2083 0.59375 33.1615 0.75 34.0156 1.0625C34.8698 1.375 35.5938 1.80208 36.1875 2.34375C36.7917 2.88542 37.2552 3.52083 37.5781 4.25C37.901 4.96875 38.0625 5.73438 38.0625 6.54688V16.0469C38.0625 16.8594 37.901 17.6302 37.5781 18.3594C37.2552 19.0781 36.7917 19.7083 36.1875 20.25C35.5938 20.7917 34.8698 21.2188 34.0156 21.5312C33.1615 21.8438 32.2083 22 31.1562 22H26.3438C25.2917 22 24.3385 21.8438 23.4844 21.5312C22.6302 21.2188 21.901 20.7917 21.2969 20.25C20.7031 19.7083 20.2448 19.0781 19.9219 18.3594C19.599 17.6302 19.4375 16.8594 19.4375 16.0469V6.54688C19.4375 5.73438 19.599 4.96875 19.9219 4.25C20.2448 3.52083 20.7031 2.88542 21.2969 2.34375C21.901 1.80208 22.6302 1.375 23.4844 1.0625C24.3385 0.75 25.2917 0.59375 26.3438 0.59375H31.1562ZM49.6562 0.59375C50.7083 0.59375 51.6615 0.75 52.5156 1.0625C53.3698 1.375 54.0938 1.80208 54.6875 2.34375C55.2917 2.88542 55.7552 3.52083 56.0781 4.25C56.401 4.96875 56.5625 5.73438 56.5625 6.54688V16.0469C56.5625 16.8594 56.401 17.6302 56.0781 18.3594C55.7552 19.0781 55.2917 19.7083 54.6875 20.25C54.0938 20.7917 53.3698 21.2188 52.5156 21.5312C51.6615 21.8438 50.7083 22 49.6562 22H44.8438C43.7917 22 42.8385 21.8438 41.9844 21.5312C41.1302 21.2188 40.401 20.7917 39.7969 20.25C39.2031 19.7083 38.7448 19.0781 38.4219 18.3594C38.099 17.6302 37.9375 16.8594 37.9375 16.0469V6.54688C37.9375 5.73438 38.099 4.96875 38.4219 4.25C38.7448 3.52083 39.2031 2.88542 39.7969 2.34375C40.401 1.80208 41.1302 1.375 41.9844 1.0625C42.8385 0.75 43.7917 0.59375 44.8438 0.59375H49.6562ZM52.5938 10.0312L52.375 8.6875L51.375 7.70312L49.75 7.53125H46.25L45.2969 7.34375C45.2448 7.16667 45.2083 7.01042 45.1875 6.875C45.1667 6.72917 45.1302 6.57812 45.0781 6.42188V4.78125L45.2969 3.85938L46.3281 3.65625H50.2969L51.7656 3.95312L52.1406 2.25L50.3281 2H46.2188L44.6562 2.21875L43.6406 3.21875L43.4375 4.53125V6.67188L43.6406 7.98438L44.6562 8.96875L46.2188 9.17188H49.75L50.7031 9.32812C50.7344 9.48438 50.7708 9.63021 50.8125 9.76562C50.8542 9.90104 50.8906 10.0417 50.9219 10.1875V12.2344C50.901 12.3698 50.8646 12.5156 50.8125 12.6719C50.7708 12.8281 50.7344 12.974 50.7031 13.1094L49.6875 13.2656H45.8125L44.2812 13.0156L43.8906 14.7031L45.7188 14.9219H49.7812L51.375 14.7344L52.375 13.75L52.5938 12.4062V10.0312ZM71.125 2H62.0938V3.65625H65.7812V14.9219H67.4531V3.65625H71.125V2ZM68.1562 0.59375C69.2083 0.59375 70.1615 0.75 71.0156 1.0625C71.8698 1.375 72.5938 1.80208 73.1875 2.34375C73.7917 2.88542 74.2552 3.52083 74.5781 4.25C74.901 4.96875 75.0625 5.73438 75.0625 6.54688V16.0469C75.0625 16.8594 74.901 17.6302 74.5781 18.3594C74.2552 19.0781 73.7917 19.7083 73.1875 20.25C72.5938 20.7917 71.8698 21.2188 71.0156 21.5312C70.1615 21.8438 69.2083 22 68.1562 22H63.3438C62.2917 22 61.3385 21.8438 60.4844 21.5312C59.6302 21.2188 58.901 20.7917 58.2969 20.25C57.7031 19.7083 57.2448 19.0781 56.9219 18.3594C56.599 17.6302 56.4375 16.8594 56.4375 16.0469V6.54688C56.4375 5.73438 56.599 4.96875 56.9219 4.25C57.2448 3.52083 57.7031 2.88542 58.2969 2.34375C58.901 1.80208 59.6302 1.375 60.4844 1.0625C61.3385 0.75 62.2917 0.59375 63.3438 0.59375H68.1562Z" fill="#251077"/>
</svg>
