<svg width="150" height="22" viewBox="0 0 150 22" fill="none" xmlns="http://www.w3.org/2000/svg">
<path d="M12.6562 0.59375C13.7083 0.59375 14.6615 0.75 15.5156 1.0625C16.3698 1.375 17.0938 1.80208 17.6875 2.34375C18.2917 2.88542 18.7552 3.52083 19.0781 4.25C19.401 4.96875 19.5625 5.73438 19.5625 6.54688V16.0469C19.5625 16.8594 19.401 17.6302 19.0781 18.3594C18.7552 19.0781 18.2917 19.7083 17.6875 20.25C17.0938 20.7917 16.3698 21.2188 15.5156 21.5312C14.6615 21.8438 13.7083 22 12.6562 22H7.84375C6.79167 22 5.83854 21.8438 4.98438 21.5312C4.13021 21.2188 3.40104 20.7917 2.79688 20.25C2.20312 19.7083 1.74479 19.0781 1.42188 18.3594C1.09896 17.6302 0.9375 16.8594 0.9375 16.0469V6.54688C0.9375 5.73438 1.09896 4.96875 1.42188 4.25C1.74479 3.52083 2.20312 2.88542 2.79688 2.34375C3.40104 1.80208 4.13021 1.375 4.98438 1.0625C5.83854 0.75 6.79167 0.59375 7.84375 0.59375H12.6562ZM14.7031 4.5L14.4688 3.1875L13.4844 2.1875L11.9062 2H8.51562L6.95312 2.1875L5.96875 3.1875L5.73438 4.5V11.9219L5.96875 13.2344L6.95312 14.2188L8.51562 14.4219H12.4531L14.2812 14.1875L13.8906 12.5L12.4219 12.75H8.625L7.625 12.5938L7.40625 11.6562V8.4375H14.7031V4.5ZM7.40625 6.79688V4.6875L7.53125 3.79688L8.625 3.625H11.8125L12.875 3.79688L13.0312 4.71875V6.79688H7.40625ZM31.1562 0.59375C32.2083 0.59375 33.1615 0.75 34.0156 1.0625C34.8698 1.375 35.5938 1.80208 36.1875 2.34375C36.7917 2.88542 37.2552 3.52083 37.5781 4.25C37.901 4.96875 38.0625 5.73438 38.0625 6.54688V16.0469C38.0625 16.8594 37.901 17.6302 37.5781 18.3594C37.2552 19.0781 36.7917 19.7083 36.1875 20.25C35.5938 20.7917 34.8698 21.2188 34.0156 21.5312C33.1615 21.8438 32.2083 22 31.1562 22H26.3438C25.2917 22 24.3385 21.8438 23.4844 21.5312C22.6302 21.2188 21.901 20.7917 21.2969 20.25C20.7031 19.7083 20.2448 19.0781 19.9219 18.3594C19.599 17.6302 19.4375 16.8594 19.4375 16.0469V6.54688C19.4375 5.73438 19.599 4.96875 19.9219 4.25C20.2448 3.52083 20.7031 2.88542 21.2969 2.34375C21.901 1.80208 22.6302 1.375 23.4844 1.0625C24.3385 0.75 25.2917 0.59375 26.3438 0.59375H31.1562ZM34.0312 4.53125L33.8125 3.21875L32.8125 2.21875L31.2188 2H25.3906V14.9219H27.0156V10.3125H31.2188L32.8125 10.125L33.8125 9.14062L34.0312 7.79688V4.53125ZM32.1406 8.5L31.125 8.65625H27.0156V3.65625H31.125L32.2031 3.82812L32.3594 4.75V7.625L32.1406 8.5ZM43.5938 13.2656V14.9219H52.625V13.2656H48.9531V3.65625H52.625V2H43.5938V3.65625H47.2812V13.2656H43.5938ZM49.6562 0.59375C50.7083 0.59375 51.6615 0.75 52.5156 1.0625C53.3698 1.375 54.0938 1.80208 54.6875 2.34375C55.2917 2.88542 55.7552 3.52083 56.0781 4.25C56.401 4.96875 56.5625 5.73438 56.5625 6.54688V16.0469C56.5625 16.8594 56.401 17.6302 56.0781 18.3594C55.7552 19.0781 55.2917 19.7083 54.6875 20.25C54.0938 20.7917 53.3698 21.2188 52.5156 21.5312C51.6615 21.8438 50.7083 22 49.6562 22H44.8438C43.7917 22 42.8385 21.8438 41.9844 21.5312C41.1302 21.2188 40.401 20.7917 39.7969 20.25C39.2031 19.7083 38.7448 19.0781 38.4219 18.3594C38.099 17.6302 37.9375 16.8594 37.9375 16.0469V6.54688C37.9375 5.73438 38.099 4.96875 38.4219 4.25C38.7448 3.52083 39.2031 2.88542 39.7969 2.34375C40.401 1.80208 41.1302 1.375 41.9844 1.0625C42.8385 0.75 43.7917 0.59375 44.8438 0.59375H49.6562ZM68.1562 0.59375C69.2083 0.59375 70.1615 0.75 71.0156 1.0625C71.8698 1.375 72.5938 1.80208 73.1875 2.34375C73.7917 2.88542 74.2552 3.52083 74.5781 4.25C74.901 4.96875 75.0625 5.73438 75.0625 6.54688V16.0469C75.0625 16.8594 74.901 17.6302 74.5781 18.3594C74.2552 19.0781 73.7917 19.7083 73.1875 20.25C72.5938 20.7917 71.8698 21.2188 71.0156 21.5312C70.1615 21.8438 69.2083 22 68.1562 22H63.3438C62.2917 22 61.3385 21.8438 60.4844 21.5312C59.6302 21.2188 58.901 20.7917 58.2969 20.25C57.7031 19.7083 57.2448 19.0781 56.9219 18.3594C56.599 17.6302 56.4375 16.8594 56.4375 16.0469V6.54688C56.4375 5.73438 56.599 4.96875 56.9219 4.25C57.2448 3.52083 57.7031 2.88542 58.2969 2.34375C58.901 1.80208 59.6302 1.375 60.4844 1.0625C61.3385 0.75 62.2917 0.59375 63.3438 0.59375H68.1562ZM71.0938 10.0312L70.875 8.6875L69.875 7.70312L68.25 7.53125H64.75L63.7969 7.34375C63.7448 7.16667 63.7083 7.01042 63.6875 6.875C63.6667 6.72917 63.6302 6.57812 63.5781 6.42188V4.78125L63.7969 3.85938L64.8281 3.65625H68.7969L70.2656 3.95312L70.6406 2.25L68.8281 2H64.7188L63.1562 2.21875L62.1406 3.21875L61.9375 4.53125V6.67188L62.1406 7.98438L63.1562 8.96875L64.7188 9.17188H68.25L69.2031 9.32812C69.2344 9.48438 69.2708 9.63021 69.3125 9.76562C69.3542 9.90104 69.3906 10.0417 69.4219 10.1875V12.2344C69.401 12.3698 69.3646 12.5156 69.3125 12.6719C69.2708 12.8281 69.2344 12.974 69.2031 13.1094L68.1875 13.2656H64.3125L62.7812 13.0156L62.3906 14.7031L64.2188 14.9219H68.2812L69.875 14.7344L70.875 13.75L71.0938 12.4062V10.0312ZM86.6562 0.59375C87.7083 0.59375 88.6615 0.75 89.5156 1.0625C90.3698 1.375 91.0938 1.80208 91.6875 2.34375C92.2917 2.88542 92.7552 3.52083 93.0781 4.25C93.401 4.96875 93.5625 5.73438 93.5625 6.54688V16.0469C93.5625 16.8594 93.401 17.6302 93.0781 18.3594C92.7552 19.0781 92.2917 19.7083 91.6875 20.25C91.0938 20.7917 90.3698 21.2188 89.5156 21.5312C88.6615 21.8438 87.7083 22 86.6562 22H81.8438C80.7917 22 79.8385 21.8438 78.9844 21.5312C78.1302 21.2188 77.401 20.7917 76.7969 20.25C76.2031 19.7083 75.7448 19.0781 75.4219 18.3594C75.099 17.6302 74.9375 16.8594 74.9375 16.0469V6.54688C74.9375 5.73438 75.099 4.96875 75.4219 4.25C75.7448 3.52083 76.2031 2.88542 76.7969 2.34375C77.401 1.80208 78.1302 1.375 78.9844 1.0625C79.8385 0.75 80.7917 0.59375 81.8438 0.59375H86.6562ZM89.875 4.53125L89.6562 3.21875L88.6719 2.21875L87.0625 2H82.875L81.2812 2.21875L80.2812 3.21875L80.0938 4.53125V12.4062L80.2812 13.75L81.3125 14.7344L82.875 14.9219H87.0625L88.6719 14.7344L89.6562 13.75L89.875 12.4062V4.53125ZM88 13.1094L86.9688 13.2656H82.9688L81.9531 13.1094L81.7188 12.1719V4.6875L81.875 3.82812L82.9688 3.65625H86.9688L88.0625 3.82812L88.2188 4.75V12.2344L88 13.1094ZM105.156 0.59375C106.208 0.59375 107.161 0.75 108.016 1.0625C108.87 1.375 109.594 1.80208 110.188 2.34375C110.792 2.88542 111.255 3.52083 111.578 4.25C111.901 4.96875 112.062 5.73438 112.062 6.54688V16.0469C112.062 16.8594 111.901 17.6302 111.578 18.3594C111.255 19.0781 110.792 19.7083 110.188 20.25C109.594 20.7917 108.87 21.2188 108.016 21.5312C107.161 21.8438 106.208 22 105.156 22H100.344C99.2917 22 98.3385 21.8438 97.4844 21.5312C96.6302 21.2188 95.901 20.7917 95.2969 20.25C94.7031 19.7083 94.2448 19.0781 93.9219 18.3594C93.599 17.6302 93.4375 16.8594 93.4375 16.0469V6.54688C93.4375 5.73438 93.599 4.96875 93.9219 4.25C94.2448 3.52083 94.7031 2.88542 95.2969 2.34375C95.901 1.80208 96.6302 1.375 97.4844 1.0625C98.3385 0.75 99.2917 0.59375 100.344 0.59375H105.156ZM108.406 4.53125L108.188 3.21875L107.203 2.21875L105.594 2H98.625V14.9219H105.594L107.203 14.7344L108.188 13.75L108.406 12.4062V4.53125ZM106.531 13.1094L105.5 13.2656H100.25V3.65625H105.5L106.594 3.82812L106.75 4.75V12.2344L106.531 13.1094ZM123.656 0.59375C124.708 0.59375 125.661 0.75 126.516 1.0625C127.37 1.375 128.094 1.80208 128.688 2.34375C129.292 2.88542 129.755 3.52083 130.078 4.25C130.401 4.96875 130.562 5.73438 130.562 6.54688V16.0469C130.562 16.8594 130.401 17.6302 130.078 18.3594C129.755 19.0781 129.292 19.7083 128.688 20.25C128.094 20.7917 127.37 21.2188 126.516 21.5312C125.661 21.8438 124.708 22 123.656 22H118.844C117.792 22 116.839 21.8438 115.984 21.5312C115.13 21.2188 114.401 20.7917 113.797 20.25C113.203 19.7083 112.745 19.0781 112.422 18.3594C112.099 17.6302 111.938 16.8594 111.938 16.0469V6.54688C111.938 5.73438 112.099 4.96875 112.422 4.25C112.745 3.52083 113.203 2.88542 113.797 2.34375C114.401 1.80208 115.13 1.375 115.984 1.0625C116.839 0.75 117.792 0.59375 118.844 0.59375H123.656ZM125.703 4.5L125.469 3.1875L124.484 2.1875L122.906 2H119.516L117.953 2.1875L116.969 3.1875L116.734 4.5V11.9219L116.969 13.2344L117.953 14.2188L119.516 14.4219H123.453L125.281 14.1875L124.891 12.5L123.422 12.75H119.625L118.625 12.5938L118.406 11.6562V8.4375H125.703V4.5ZM118.406 6.79688V4.6875L118.531 3.79688L119.625 3.625H122.812L123.875 3.79688L124.031 4.71875V6.79688H118.406ZM142.156 0.59375C143.208 0.59375 144.161 0.75 145.016 1.0625C145.87 1.375 146.594 1.80208 147.188 2.34375C147.792 2.88542 148.255 3.52083 148.578 4.25C148.901 4.96875 149.062 5.73438 149.062 6.54688V16.0469C149.062 16.8594 148.901 17.6302 148.578 18.3594C148.255 19.0781 147.792 19.7083 147.188 20.25C146.594 20.7917 145.87 21.2188 145.016 21.5312C144.161 21.8438 143.208 22 142.156 22H137.344C136.292 22 135.339 21.8438 134.484 21.5312C133.63 21.2188 132.901 20.7917 132.297 20.25C131.703 19.7083 131.245 19.0781 130.922 18.3594C130.599 17.6302 130.438 16.8594 130.438 16.0469V6.54688C130.438 5.73438 130.599 4.96875 130.922 4.25C131.245 3.52083 131.703 2.88542 132.297 2.34375C132.901 1.80208 133.63 1.375 134.484 1.0625C135.339 0.75 136.292 0.59375 137.344 0.59375H142.156ZM145.094 10.0312L144.875 8.6875L143.875 7.70312L142.25 7.53125H138.75L137.797 7.34375C137.745 7.16667 137.708 7.01042 137.688 6.875C137.667 6.72917 137.63 6.57812 137.578 6.42188V4.78125L137.797 3.85938L138.828 3.65625H142.797L144.266 3.95312L144.641 2.25L142.828 2H138.719L137.156 2.21875L136.141 3.21875L135.938 4.53125V6.67188L136.141 7.98438L137.156 8.96875L138.719 9.17188H142.25L143.203 9.32812C143.234 9.48438 143.271 9.63021 143.312 9.76562C143.354 9.90104 143.391 10.0417 143.422 10.1875V12.2344C143.401 12.3698 143.365 12.5156 143.312 12.6719C143.271 12.8281 143.234 12.974 143.203 13.1094L142.188 13.2656H138.312L136.781 13.0156L136.391 14.7031L138.219 14.9219H142.281L143.875 14.7344L144.875 13.75L145.094 12.4062V10.0312Z" fill="#251077"/>
</svg>
