<svg width="76" height="22" viewBox="0 0 76 22" fill="none" xmlns="http://www.w3.org/2000/svg">
<path d="M12.6562 0.59375C13.7083 0.59375 14.6615 0.75 15.5156 1.0625C16.3698 1.375 17.0938 1.80208 17.6875 2.34375C18.2917 2.88542 18.7552 3.52083 19.0781 4.25C19.401 4.96875 19.5625 5.73438 19.5625 6.54688V16.0469C19.5625 16.8594 19.401 17.6302 19.0781 18.3594C18.7552 19.0781 18.2917 19.7083 17.6875 20.25C17.0938 20.7917 16.3698 21.2188 15.5156 21.5312C14.6615 21.8438 13.7083 22 12.6562 22H7.84375C6.79167 22 5.83854 21.8438 4.98438 21.5312C4.13021 21.2188 3.40104 20.7917 2.79688 20.25C2.20312 19.7083 1.74479 19.0781 1.42188 18.3594C1.09896 17.6302 0.9375 16.8594 0.9375 16.0469V6.54688C0.9375 5.73438 1.09896 4.96875 1.42188 4.25C1.74479 3.52083 2.20312 2.88542 2.79688 2.34375C3.40104 1.80208 4.13021 1.375 4.98438 1.0625C5.83854 0.75 6.79167 0.59375 7.84375 0.59375H12.6562ZM15.5312 4.53125L15.3125 3.21875L14.3125 2.21875L12.7188 2H6.89062V14.9219H8.51562V10.3125H12.7188L14.3125 10.125L15.3125 9.14062L15.5312 7.79688V4.53125ZM13.6406 8.5L12.625 8.65625H8.51562V3.65625H12.625L13.7031 3.82812L13.8594 4.75V7.625L13.6406 8.5ZM32.9688 13.2656H28.1719V2H26.5156V14.9219H32.9688V13.2656ZM31.1562 0.59375C32.2083 0.59375 33.1615 0.75 34.0156 1.0625C34.8698 1.375 35.5938 1.80208 36.1875 2.34375C36.7917 2.88542 37.2552 3.52083 37.5781 4.25C37.901 4.96875 38.0625 5.73438 38.0625 6.54688V16.0469C38.0625 16.8594 37.901 17.6302 37.5781 18.3594C37.2552 19.0781 36.7917 19.7083 36.1875 20.25C35.5938 20.7917 34.8698 21.2188 34.0156 21.5312C33.1615 21.8438 32.2083 22 31.1562 22H26.3438C25.2917 22 24.3385 21.8438 23.4844 21.5312C22.6302 21.2188 21.901 20.7917 21.2969 20.25C20.7031 19.7083 20.2448 19.0781 19.9219 18.3594C19.599 17.6302 19.4375 16.8594 19.4375 16.0469V6.54688C19.4375 5.73438 19.599 4.96875 19.9219 4.25C20.2448 3.52083 20.7031 2.88542 21.2969 2.34375C21.901 1.80208 22.6302 1.375 23.4844 1.0625C24.3385 0.75 25.2917 0.59375 26.3438 0.59375H31.1562ZM49.6562 0.59375C50.7083 0.59375 51.6615 0.75 52.5156 1.0625C53.3698 1.375 54.0938 1.80208 54.6875 2.34375C55.2917 2.88542 55.7552 3.52083 56.0781 4.25C56.401 4.96875 56.5625 5.73438 56.5625 6.54688V16.0469C56.5625 16.8594 56.401 17.6302 56.0781 18.3594C55.7552 19.0781 55.2917 19.7083 54.6875 20.25C54.0938 20.7917 53.3698 21.2188 52.5156 21.5312C51.6615 21.8438 50.7083 22 49.6562 22H44.8438C43.7917 22 42.8385 21.8438 41.9844 21.5312C41.1302 21.2188 40.401 20.7917 39.7969 20.25C39.2031 19.7083 38.7448 19.0781 38.4219 18.3594C38.099 17.6302 37.9375 16.8594 37.9375 16.0469V6.54688C37.9375 5.73438 38.099 4.96875 38.4219 4.25C38.7448 3.52083 39.2031 2.88542 39.7969 2.34375C40.401 1.80208 41.1302 1.375 41.9844 1.0625C42.8385 0.75 43.7917 0.59375 44.8438 0.59375H49.6562ZM52.875 4.53125L52.6562 3.21875L51.6719 2.21875L50.0625 2H45.875L44.2812 2.21875L43.2812 3.21875L43.0938 4.53125V12.4062L43.2812 13.75L44.3125 14.7344L45.875 14.9219H50.0625L51.6719 14.7344L52.6562 13.75L52.875 12.4062V4.53125ZM51 13.1094L49.9688 13.2656H45.9688L44.9531 13.1094L44.7188 12.1719V4.6875L44.875 3.82812L45.9688 3.65625H49.9688L51.0625 3.82812L51.2188 4.75V12.2344L51 13.1094ZM71.125 2H62.0938V3.65625H65.7812V14.9219H67.4531V3.65625H71.125V2ZM68.1562 0.59375C69.2083 0.59375 70.1615 0.75 71.0156 1.0625C71.8698 1.375 72.5938 1.80208 73.1875 2.34375C73.7917 2.88542 74.2552 3.52083 74.5781 4.25C74.901 4.96875 75.0625 5.73438 75.0625 6.54688V16.0469C75.0625 16.8594 74.901 17.6302 74.5781 18.3594C74.2552 19.0781 73.7917 19.7083 73.1875 20.25C72.5938 20.7917 71.8698 21.2188 71.0156 21.5312C70.1615 21.8438 69.2083 22 68.1562 22H63.3438C62.2917 22 61.3385 21.8438 60.4844 21.5312C59.6302 21.2188 58.901 20.7917 58.2969 20.25C57.7031 19.7083 57.2448 19.0781 56.9219 18.3594C56.599 17.6302 56.4375 16.8594 56.4375 16.0469V6.54688C56.4375 5.73438 56.599 4.96875 56.9219 4.25C57.2448 3.52083 57.7031 2.88542 58.2969 2.34375C58.901 1.80208 59.6302 1.375 60.4844 1.0625C61.3385 0.75 62.2917 0.59375 63.3438 0.59375H68.1562Z" fill="#251077"/>
</svg>
